<?xml version="1.0" encoding="utf-8"?>
<!DOCTYPE svg PUBLIC "-//W3C//DTD SVG 1.0//EN" "http://www.w3.org/TR/2001/REC-SVG-20010904/DTD/svg10.dtd">
<svg version="1.0" xmlns="http://www.w3.org/2000/svg" width="1024px" height="1024px" viewBox="0 0 1024 1024" preserveAspectRatio="xMidYMid meet">
 <g fill="#118f7b">
  <path d="M675.1 681.8 c-2.2 -0.8 -4.3 -6.1 -3.4 -8.5 0.4 -1 0.2 -1.4 -0.4 -1 -1.3 0.8 -3.6 -5 -2.6 -6.7 0.3 -0.6 0.2 -0.8 -0.2 -0.3 -1 0.9 -8.8 -19 -8 -20.3 0.3 -0.4 0 -1 -0.5 -1.2 -0.6 -0.2 -1.2 -1 -1.4 -1.8 -0.1 -0.8 -0.9 -2.8 -1.8 -4.5 -2.4 -4.7 -3.3 -7.9 -1.8 -7 0.9 0.5 1.1 0.4 0.6 -0.4 -0.4 -0.6 -1.1 -0.9 -1.5 -0.6 -0.5 0.2 -1.4 -1.4 -2 -3.6 -0.7 -2.3 -1.5 -4.7 -1.8 -5.5 -0.3 -0.8 0.1 -1.4 1.1 -1.4 0.8 0 3.1 -1.3 4.9 -3 4.3 -3.7 9.9 -4.1 13.3 -0.9 l2.3 2.2 4 -3.3 c2.3 -1.7 5.7 -3.6 7.6 -4.1 1.9 -0.6 3.9 -1.9 4.5 -2.9 0.6 -1.1 2.8 -3.9 5 -6.2 2.9 -3.2 4 -5.2 4 -7.6 0 -2.7 0.5 -3.5 3.3 -4.6 5.7 -2.4 10.3 -3.6 13.8 -3.6 2.5 0 4.3 -0.8 5.9 -2.5 1.3 -1.4 4.1 -3 6.2 -3.5 2.1 -0.6 4.6 -1.9 5.5 -2.9 2.6 -2.7 5.8 -4.1 9.3 -4.1 1.8 0 4.5 -1.1 6.4 -2.5 2.4 -1.8 4.5 -2.5 7.9 -2.5 2.7 0 4.7 0.5 4.7 1.1 0 0.5 0.4 0.7 1 0.4 0.5 -0.3 -0.1 2.2 -1.4 5.7 -1.3 3.5 -4 11.1 -6.1 17.1 -2.3 6.5 -4.3 10.7 -5.1 10.7 -0.8 0 -1.4 0.5 -1.4 1.1 0 0.5 0.5 0.7 1.2 0.3 0.8 -0.5 0.9 -0.2 0.5 1 -0.4 1 -0.7 2.3 -0.7 2.9 0 0.8 -0.3 0.7 -0.9 -0.1 -0.7 -1.1 -0.9 -1.1 -1.4 0.2 -0.4 0.9 -0.2 1.6 0.3 1.6 1 0 0.7 1.1 -4 14.8 -1.8 5 -3.5 9 -4 8.7 -0.4 -0.3 -0.6 0.5 -0.3 1.7 0.4 1.9 0.3 2.1 -0.7 0.8 -1 -1.3 -1.1 -1.2 -0.6 0.4 0.7 2.2 -1.4 9.7 -2.5 9.1 -0.4 -0.3 -1.1 0 -1.5 0.6 -0.4 0.8 -0.3 0.9 0.4 0.5 1.6 -1 1.6 -1 -2.4 10.3 -2.2 6 -4 9.8 -4.7 9.4 -0.6 -0.3 -0.7 -0.1 -0.3 0.6 1.1 1.7 -2.3 11.1 -4 11.1 -0.8 0 -1.4 0.8 -1.4 1.8 0 1.4 0.2 1.5 1 0.2 0.5 -0.8 1 -1 1 -0.5 0 2.8 -1.9 3.7 -6.9 3.3 -2.8 -0.3 -5.1 -0.2 -5.1 0.1 0 0.8 -32.7 0.7 -34.9 -0.1z"/>
  <path d="M751.8 562.8 l-4.8 -1 0 -5.6 c0 -3.1 0.5 -7.1 1.2 -8.9 1 -2.8 1.7 -3.3 4.5 -3.3 1.9 0 5 -1.2 7.6 -3 4.4 -2.9 11.7 -4.2 11.7 -2.1 0 0.5 -1.6 5.5 -3.6 11.1 -2.6 7.2 -4.1 10 -5 9.6 -0.8 -0.3 -1.4 -0.1 -1.4 0.4 0 0.6 0.5 1 1.1 1 0.6 0 0.9 0.5 0.7 1.2 -0.6 1.6 -6.1 1.9 -12 0.6z"/>
 </g>
 <g fill="#1ba589">
  <path d="M511.7 678.8 c-1.4 -2.7 -15.6 -35.8 -17.5 -40.7 -0.3 -0.9 -0.1 -1.2 0.5 -0.8 0.7 0.5 0.9 0 0.6 -1.4 -0.4 -1.6 -0.8 -1.7 -1.4 -0.7 -0.7 1 -0.9 0.9 -0.9 -0.4 0 -1.5 0.9 -1.8 5.5 -1.8 4.6 0 5.9 0.4 8.8 3 3.1 2.7 4.2 3 9.9 3 6 0 6.6 -0.2 8.7 -3.1 1.2 -1.6 2.5 -4.7 2.8 -6.7 0.3 -2 1.5 -5 2.6 -6.5 1.9 -2.8 2 -2.8 11.6 -2.6 11.9 0.3 15.4 -1 15.9 -5.9 0.2 -1.7 0.7 -3.2 1.3 -3.2 0.5 0 0.9 -0.9 0.9 -1.9 0 -2.7 4.3 -7.6 8.1 -9.1 3.8 -1.6 8.1 -5.7 6.8 -6.5 -1.3 -0.9 -1 -7.7 0.4 -9.7 1.9 -2.4 7.9 -3.2 13.7 -1.7 2.7 0.7 5 1.7 5 2.1 0 0.5 -0.5 0.6 -1.2 0.2 -0.6 -0.4 -0.8 -0.3 -0.4 0.4 0.7 1.3 -7.7 23.5 -8.7 22.6 -0.3 -0.3 -0.5 0.2 -0.5 1.2 0.2 2.9 -2.2 9.5 -3.3 8.9 -0.5 -0.4 -0.6 0 -0.4 0.8 0.7 1.8 -3.1 10.3 -3.8 8.5 -0.3 -0.7 -0.5 0.1 -0.5 1.7 0.2 4.1 -1.1 7.7 -2.4 6.9 -0.6 -0.4 -0.8 -0.2 -0.5 0.3 0.8 1.2 -2.3 10.3 -3.5 10.3 -0.4 0 -0.4 0.7 -0.1 1.7 0.5 1.2 0.3 1.4 -0.7 0.8 -0.9 -0.5 -1.1 -0.4 -0.6 0.4 0.9 1.4 -1.2 7.1 -2.6 7.1 -0.5 0 -0.7 0.4 -0.4 0.9 0.7 1.1 -1.3 7.1 -2.5 7.1 -0.4 0 -0.5 0.7 -0.2 1.7 0.4 1 0.2 1.4 -0.5 0.9 -1 -0.6 -2.5 2.3 -2.1 4 0.2 0.5 -0.3 2.7 -1 4.9 -1 3.3 -1.8 4.1 -3.9 4.3 -1.5 0.1 -2.8 0.7 -3 1.2 -0.6 1.6 -26.9 1.3 -27.5 -0.2 -0.4 -1 -0.6 -1 -0.6 0 -0.1 0.8 -1.9 1.2 -5.4 1.2 -5.1 0 -5.5 -0.2 -7 -3.2z"/>
  <path d="M650 620.1 c-1.3 -2.5 -1.3 -3.4 0 -2.6 0.6 0.3 1 0.1 1 -0.4 0 -0.6 -0.6 -1.1 -1.4 -1.1 -1.8 0 -10.9 -23.1 -10 -25.6 0.4 -1.3 0.3 -1.5 -0.3 -0.7 -1 1.5 -16.7 -37.2 -15.7 -38.8 0.3 -0.5 0.1 -0.9 -0.4 -0.9 -0.5 0 -1.9 -2.3 -3.1 -5.2 -2.6 -6.2 -2.1 -6.8 6.5 -6.8 4.5 0 6.5 0.5 8 1.9 4.5 4.1 6 4.4 13.7 2 4 -1.2 8.8 -3.4 10.7 -4.8 4.7 -3.5 7 -4.6 10.7 -5.4 3 -0.6 3.3 -0.4 5.6 4.6 4.3 9 5.7 12.9 5.1 13.8 -0.3 0.5 0 0.9 0.6 0.9 1.6 0 2.9 4.3 1.7 5.8 -0.7 0.9 -0.6 1.1 0.7 0.6 1.2 -0.5 1.5 -0.2 0.9 1.2 -0.4 1.1 -0.3 1.5 0.4 1.1 0.6 -0.4 1.3 0.6 1.7 2.3 0.3 1.7 0.9 3 1.4 3 0.5 0 1.9 -3.4 3.2 -7.5 1.6 -5.1 2.6 -7.1 3.2 -6.3 0.6 0.9 0.7 0.6 0.3 -0.8 -0.5 -1.9 5.9 -22.1 7.4 -23.4 0.3 -0.3 0.6 -0.9 0.6 -1.5 0 -2.9 7 -22.3 7.8 -21.8 0.6 0.3 0.7 0.1 0.3 -0.5 -0.9 -1.6 7.4 -25.3 9.2 -25.9 0.8 -0.4 2.3 -0.1 3.3 0.5 2.7 1.7 6.6 1.5 7.3 -0.4 0.3 -0.9 0.6 -3.7 0.6 -6.2 0 -2.6 0.3 -6.4 0.6 -8.5 0.6 -3.5 0.9 -3.7 4.2 -3.7 2 0 6.1 0.5 9.2 1.2 5.3 1.1 5.9 1 8.8 -1 1.7 -1.3 3.8 -4.1 4.8 -6.7 0.9 -2.5 2 -4.5 2.4 -4.5 0.3 0 2.5 -1.6 4.8 -3.6 3.6 -3 5.2 -3.7 10.2 -4.1 3.3 -0.3 6 -1 6 -1.5 0 -0.5 2 -3.1 4.5 -5.7 3.8 -4 4.5 -5.4 3.9 -7.5 -0.3 -1.4 -1.2 -3 -2 -3.7 -0.8 -0.7 -1.4 -3 -1.4 -5.5 0 -4.4 0 -4.4 3.6 -4.4 2.3 0 4.7 0.9 7 2.6 3 2.3 3.7 2.5 5.2 1.3 3.5 -2.8 6.3 -3.9 10.2 -3.9 2.2 0 4 0.3 4 0.8 0 1.8 -4.5 13.2 -5.2 13.2 -0.5 0 -0.7 0.4 -0.4 0.9 0.9 1.4 -1.5 7.2 -2.7 6.4 -0.6 -0.3 -0.7 -0.1 -0.3 0.5 0.9 1.4 -5.4 20.3 -6.6 19.6 -0.4 -0.3 -0.6 0.1 -0.3 0.8 0.3 0.7 -1.3 6.3 -3.5 12.3 -2.3 6.1 -5 13.8 -6.1 17.3 -1.1 3.4 -2.4 6 -2.9 5.7 -0.4 -0.3 -0.6 0.4 -0.3 1.5 0.3 1.2 0 2 -0.6 2 -0.7 0 -1 0.4 -0.7 0.9 0.4 0.5 -0.7 4.4 -2.2 8.7 -1.6 4.3 -3.1 7.4 -3.4 6.8 -0.3 -0.5 -0.3 -0.3 -0.1 0.5 0.2 0.7 -2 8 -4.9 16.2 -4.1 11.9 -5.5 14.9 -7 14.9 -2 0 -9.2 4.2 -10.3 6 -0.4 0.7 -2 0.9 -3.9 0.6 -2.9 -0.6 -3.3 -0.3 -4.4 2.7 -0.7 1.8 -1.2 4.5 -1.2 5.9 0 2.5 0.5 2.7 7 3.9 5.4 0.9 7 1.6 6.5 2.6 -0.3 0.8 -0.5 1.9 -0.5 2.4 0 0.6 -0.4 0.8 -0.9 0.5 -0.5 -0.4 -0.7 0.4 -0.3 1.6 0.3 1.3 0.1 1.9 -0.5 1.5 -0.7 -0.5 -0.9 0 -0.6 1.2 0.5 1.8 0.2 1.9 -3.1 0.9 -3.3 -1.1 -3.9 -0.9 -7.6 2.1 -2.9 2.3 -4.6 3 -6.4 2.5 -2.6 -0.6 -6.1 0.8 -8.9 3.7 -0.9 1 -3.4 2.3 -5.5 2.9 -2.1 0.5 -4.9 2.1 -6.2 3.5 -1.6 1.7 -3.4 2.5 -5.9 2.5 -3.6 0 -8.1 1.2 -13.9 3.6 -2.9 1.3 -3.3 1.8 -2.8 4.2 0.5 2.2 -0.2 3.5 -3.9 7.4 -2.4 2.6 -4.9 5.6 -5.5 6.7 -0.5 1.1 -2.6 2.4 -4.4 3 -1.9 0.5 -5.6 2.5 -8.2 4.5 -5.6 4.3 -7.3 4.4 -11.2 1.1 -1.7 -1.4 -3.3 -2.5 -3.7 -2.5 -0.4 0 -2.3 1.4 -4.2 3 -3.9 3.4 -7.8 3.9 -9.3 1.1z m24.3 -84.1 c-0.5 -1.9 -2.3 -3.9 -2.3 -2.5 0 0.9 2 4.5 2.4 4.5 0.2 0 0.2 -0.9 -0.1 -2z"/>
 </g>
 <g fill="#27ba96">
  <path d="M510.5 642.2 c-1.6 -0.2 -4.5 -1.7 -6.4 -3.4 -2.5 -2.2 -4.1 -2.9 -6.2 -2.6 -2.2 0.3 -2.9 0 -2.9 -1.1 0 -1.3 -0.2 -1.3 -0.9 -0.3 -0.5 0.9 -1.5 -0.2 -3 -3.8 -1.2 -2.8 -1.9 -5.5 -1.6 -5.9 0.3 -0.5 0.1 -1.1 -0.5 -1.3 -1.8 -0.6 -10.1 -21 -9.4 -23.2 0.3 -1.4 0.2 -1.7 -0.4 -0.8 -1.1 1.6 -6.7 -10.2 -5.8 -12.3 0.3 -0.8 0.1 -1.4 -0.5 -1.2 -0.6 0.1 -2.1 -2.5 -3.5 -5.7 -2.2 -5.6 -2.3 -6.1 -0.7 -7.8 1.8 -2 10.7 -2.6 11.8 -0.7 0.4 0.6 1.9 0 4 -1.5 2.6 -2.1 4.5 -2.6 8.7 -2.6 3 0 5.9 0.5 6.4 1 0.7 0.7 1.6 0.4 2.9 -1 1.4 -1.6 1.8 -3.4 1.6 -7.7 l-0.2 -5.6 6 0.6 c5.7 0.5 6.1 0.4 10 -3 4.8 -4 7 -3.8 9 0.9 0.8 1.8 2.7 6 4.1 9.3 3.8 8.5 4.3 9.9 4.2 10.8 -0.4 1.5 1.9 0.6 2.4 -1 1.8 -5.5 4.7 -12.3 5.3 -12.3 0.4 0 0.8 -0.6 0.8 -1.3 0 -2.3 6.6 -17.6 7.5 -17.1 0.4 0.3 0.6 -0.1 0.3 -0.8 -0.6 -1.8 5 -14 6 -13.1 0.4 0.5 0.5 0.3 0.1 -0.4 -0.8 -1.4 9.2 -24.3 10.6 -24.3 0.5 0 0.7 -0.4 0.4 -0.9 -0.9 -1.4 0.5 -4.2 1.7 -3.4 0.6 0.3 0.7 0.1 0.3 -0.5 -0.6 -1 2.6 -5.2 3.9 -5.2 0.3 0 0.5 1.8 0.5 3.9 0 5.5 1.5 9.1 3.9 9.1 2.1 0 5.6 -3.8 6.7 -7.2 0.6 -1.9 1.1 -2 7 -1.4 l6.5 0.7 4.1 -4.6 c3.5 -3.8 4.7 -4.5 7.9 -4.5 5.4 0 8.2 -1.6 12 -6.6 l3.3 -4.4 9.8 0 c7.2 0 9.8 0.3 9.8 1.3 0 0.8 0.3 0.7 0.9 -0.2 0.8 -1.2 1.1 -0.8 1.7 1.5 0.5 1.6 0.7 3.5 0.5 4.3 -0.1 0.8 0.2 1 1 0.5 0.9 -0.5 1 -0.2 0.6 1 -0.4 0.9 -0.3 1.5 0.2 1.1 0.8 -0.5 4.6 7.6 4.2 9 -0.1 0.3 0.5 1.3 1.4 2.1 1.7 1.8 2 3.9 0.4 2.8 -0.7 -0.4 -1 -0.2 -0.8 0.5 0.3 0.7 0.8 1.2 1.3 1.1 1.4 -0.3 2.8 2.8 2 4.2 -0.4 0.6 -0.3 0.8 0.2 0.5 0.6 -0.3 2.7 3.2 4.7 7.8 5.2 11.8 5.3 12 3.6 11.1 -0.8 -0.4 -0.6 -0.1 0.3 0.7 1.9 1.5 4.5 7.2 2.8 6.2 -0.6 -0.3 -1 -0.3 -1 0.2 0 0.4 -1.5 1.5 -3.2 2.2 -1.8 0.8 -4.9 2.7 -6.8 4.1 -3.9 3 -15.8 7 -20.8 7 -3.6 0 -6.5 -1.2 -9.5 -4 -1.8 -1.7 -12 -3.4 -11.1 -1.8 0.2 0.4 0 0.9 -0.5 1.3 -0.6 0.3 -1.8 -1.9 -2.7 -4.9 -1.9 -6 -2.8 -6.3 -3.8 -1.6 -0.4 2.1 -1 2.9 -1.7 2.4 -0.8 -0.4 -0.9 -0.3 -0.5 0.5 1.1 1.7 -0.3 5.1 -2.2 5.2 -1.1 0 -1.2 0.3 -0.4 0.6 0.6 0.2 1.2 0.9 1.2 1.4 0 0.6 -0.4 0.7 -1 0.4 -0.5 -0.3 -0.8 0 -0.5 0.7 0.6 1.9 -11.9 33 -12.9 32.1 -0.5 -0.4 -0.6 -0.2 -0.2 0.5 0.5 0.7 0.3 2.5 -0.3 4 -1.2 2.9 -3.4 3.3 -8.1 1.5 -1.7 -0.7 -2.7 -0.7 -3.1 0 -0.4 0.5 -1.3 0.7 -2.1 0.4 -0.8 -0.3 -2 0.4 -2.6 1.4 -1 1.5 -0.9 2.4 0.2 4.2 0.7 1.2 1.3 2.9 1.1 3.8 -0.3 1.8 -5.1 6.9 -6.5 6.9 -0.6 0 -1 0.5 -1 1.1 0 0.5 -0.4 0.8 -1 0.4 -1.4 -0.9 -7 4.6 -7.5 7.4 -0.3 1.4 -0.9 2.8 -1.5 3.1 -0.6 0.4 -0.9 1.8 -0.6 3.3 0.4 2.1 -0.1 2.8 -3.2 4.4 -3 1.4 -5.6 1.7 -13.4 1.5 -9.5 -0.2 -9.7 -0.2 -11.6 2.5 -1 1.6 -2.2 4.5 -2.5 6.6 -0.3 2 -1.7 5.1 -3 6.9 -2.3 2.8 -3 3.1 -8.8 3.2 -3.5 0 -7.7 -0.1 -9.4 -0.2z"/>
  <path d="M728.6 483.5 c-1.1 -0.8 -3.1 -1.5 -4.5 -1.5 -1.4 0 -3.4 -0.7 -4.4 -1.4 -1.7 -1.3 -1.7 -1.6 -0.2 -5.7 0.9 -2.4 2.3 -6.8 3.2 -9.6 0.9 -2.9 1.9 -5 2.3 -4.8 0.4 0.3 0.8 -0.1 0.7 -0.8 0 -0.6 0.1 -2.1 0.2 -3.2 0.1 -1.7 0.3 -1.8 1.2 -0.5 0.9 1.2 1 1.2 0.5 -0.4 -0.8 -2.4 3.3 -14.8 4.7 -13.9 0.6 0.3 0.7 0.1 0.3 -0.6 -1 -1.6 7.4 -26.2 8.7 -25.4 0.5 0.3 0.6 -0.4 0.2 -1.7 -0.5 -1.7 -0.4 -2.1 0.5 -1.5 0.9 0.5 1.1 0.4 0.6 -0.3 -1 -1.6 5.5 -20.2 7 -20.2 0.6 0 1.4 -1 1.7 -2.2 0.6 -2.2 0.6 -2.2 -0.8 -0.4 -2.2 2.9 -2 2 3.9 -14.6 3 -8.4 6.6 -18.8 8.1 -23.1 1.9 -5.4 3.3 -7.7 4.4 -7.7 1.8 0 5.1 3.3 5.1 5.3 0 0.6 0.9 2.3 2 3.7 1.8 2.3 2.1 2.4 5.2 1.2 1.8 -0.8 4.2 -1.6 5.3 -2 1.1 -0.3 2.6 -1.2 3.3 -1.9 0.7 -0.7 2.2 -1.3 3.2 -1.3 1 0 2.1 -0.9 2.5 -1.9 0.3 -1 1.8 -2.2 3.2 -2.6 5.9 -1.4 8 -4 8.7 -10.7 0.5 -4 1.3 -6.6 2.4 -7.5 2.1 -1.6 34.7 -1.9 33.7 -0.3 -0.3 0.6 0.4 1 1.7 1 1.8 0 2 -0.2 0.8 -1 -1.2 -0.8 -0.9 -1 1.4 -1 2.6 0 2.8 0.2 2.1 2.8 -0.3 1.5 -1.1 2.9 -1.6 3 -0.5 0.2 -0.7 0.7 -0.4 1.2 0.8 1.2 -2.4 9.4 -4 10.2 -0.7 0.5 -1.3 2.1 -1.3 3.6 0.1 3.7 -1.1 7.4 -2.3 6.7 -0.5 -0.3 -0.6 0 -0.4 0.8 0.8 1.9 -9.1 28.4 -9.8 26.6 -0.3 -0.8 -0.4 -0.2 -0.1 1.4 0.4 1.7 0.2 2.7 -0.6 2.7 -0.6 0 -0.8 0.4 -0.5 1 0.3 0.5 0 2 -0.7 3.2 -0.6 1.3 -1.4 3.2 -1.5 4.3 -0.8 4.4 -5.8 16.3 -6.7 15.8 -0.5 -0.3 -0.6 -0.1 -0.2 0.5 0.4 0.6 0.4 2.3 0 3.7 -0.4 1.8 -1.3 2.5 -3 2.5 -2.5 0 -5.1 1.2 -9.3 4.3 -3.3 2.4 -5.2 2.2 -9.9 -1.3 -2.3 -1.6 -4.4 -3 -4.7 -3 -1 0 -0.5 2.4 0.8 3.9 0.8 0.9 2.1 3.5 3 5.9 l1.7 4.2 -5.5 6 c-3 3.3 -5.5 6.4 -5.5 6.9 0 0.4 -2.7 1.1 -6 1.4 -5 0.4 -6.6 1.1 -10.2 4.1 -2.3 2 -4.5 3.6 -4.8 3.6 -0.4 0 -1.5 2 -2.5 4.6 -1.2 3.1 -2.9 5.3 -5.6 7.1 l-3.8 2.5 -8.2 -1.7 c-4.5 -0.9 -8.3 -1.4 -8.5 -1.2 -0.4 0.3 -2.2 17.3 -2.4 22 0 1.2 -2.3 0.8 -4.4 -0.8z"/>
 </g>
 <g fill="#36cb9f">
  <path d="M204.4 678.5 c0.9 -2.1 1.6 -4 1.6 -4.4 0 -0.3 0.5 0.1 1.1 0.9 0.9 1.2 1 1 0.6 -0.8 -0.3 -1.3 0.3 -4.3 1.4 -6.8 2.9 -6.5 6 -5.7 7.4 2.1 0.3 2.1 1.3 5.2 2.1 6.7 2.7 5.3 2.1 5.9 -5.3 5.6 -6.3 -0.3 -6.8 -0.5 -6.7 -2.5 0 -1.2 -0.3 -2 -0.8 -1.7 -0.4 0.3 -0.8 1.1 -0.8 1.9 0 0.8 -0.5 1.7 -1.1 2 -0.5 0.4 -0.3 -1 0.5 -3z"/>
  <path d="M253.4 680.7 c-3.1 -1.5 -6.4 -6.9 -6.4 -10.3 0 -4.1 2.5 -7.4 5.6 -7.4 1.5 0 4.3 -1.5 6.7 -3.5 3.1 -2.7 5 -3.5 7.9 -3.5 3.4 0 3.8 0.3 3.8 2.4 0 1.4 0.5 2.8 1 3.1 0.6 0.3 1 1.7 1 3 0 2.3 1.7 3.5 5.1 3.5 2 0 2.3 0.8 1.3 3.4 -0.3 0.9 -1 1.3 -1.6 1 -0.5 -0.3 -0.8 0 -0.7 0.7 0.2 0.8 0 2.6 -0.4 4.2 -0.6 2.1 -1.3 2.7 -3.5 2.7 -2.1 0 -2.4 0.2 -1.2 1 2.1 1.4 -15.9 1.1 -18.6 -0.3z"/>
  <path d="M335.7 593.3 c-0.4 -0.3 -0.7 -2.7 -0.7 -5.3 0 -3.7 0.6 -5.3 2.8 -7.7 2.3 -2.5 3.7 -3.1 9 -3.6 3.7 -0.4 8.5 -1.8 11.5 -3.3 5.4 -2.7 5.2 -2.6 18.9 -0.8 2.6 0.3 5.2 1.2 5.9 2 1.4 1.7 3.3 1.8 6.2 0.2 4.3 -2.5 5.7 -4.1 5.7 -7 0 -4.9 1.6 -6.8 5.8 -6.8 3 0 4.5 -0.7 7.1 -3.4 2.9 -3 3.2 -3.8 2.6 -6.8 -0.4 -1.8 -1.3 -4.3 -2.1 -5.5 -0.8 -1.2 -1.4 -3.4 -1.4 -4.7 0 -2 0.6 -2.6 3.3 -3.1 6 -1 9 0.5 8.1 4.1 -0.4 1.7 -0.2 2.4 0.8 2.4 1.7 0 10.3 18.5 9.2 20.1 -0.4 0.7 -0.3 1 0.3 0.6 1.3 -0.8 9.6 16.9 8.7 18.5 -0.4 0.6 -0.3 0.8 0.3 0.5 0.5 -0.3 1.7 1 2.7 2.9 0.9 2 1.1 3.2 0.5 2.8 -0.7 -0.4 -0.9 0 -0.5 1.3 0.6 1.9 0.1 2 -11.6 2 -6.8 -0.1 -13.4 0.3 -14.7 0.7 -1.7 0.6 -2.2 0.5 -1.6 -0.4 0.6 -0.9 0.2 -0.9 -1.5 0 -1.2 0.7 -2 0.8 -1.7 0.2 0.4 -0.5 -0.7 -0.9 -2.3 -0.8 -1.7 0.1 -3 0.3 -3 0.6 0 0.6 -18.2 0.3 -24.7 -0.4 -2.4 -0.2 -4.3 0 -4.3 0.5 0 0.5 -0.9 0.9 -2.1 0.9 -1.3 0 -1.8 -0.4 -1.3 -1.2 0.4 -0.7 0.3 -0.8 -0.5 -0.4 -1.5 1 -15.8 1.2 -16.7 0.3 -0.4 -0.4 -1.4 -0.1 -2.2 0.6 -1.3 0.9 -1.4 0.9 -0.8 0 0.4 -0.7 0.3 -1.3 -0.3 -1.3 -0.5 0 -1.2 0.6 -1.4 1.3 -0.4 1 -0.6 1 -0.6 0 -0.1 -0.7 -0.6 -1.3 -1.2 -1.3 -0.5 0 -0.7 0.6 -0.3 1.3 0.5 0.8 0.2 0.8 -0.9 -0.2 -0.9 -0.7 -1.7 -1 -1.7 -0.5 0 0.5 -1.6 1 -3.5 1.1 -2.3 0.2 -3.5 -0.1 -3.5 -1 0 -0.9 -0.2 -0.9 -0.8 0.1 -0.5 0.7 -1.1 0.9 -1.5 0.5z m97.9 -19 c-0.8 -1.5 -1.5 -2.2 -1.6 -1.5 0 1.4 2.2 5.3 2.8 4.7 0.2 -0.2 -0.3 -1.6 -1.2 -3.2z"/>
  <path d="M468.3 577.7 c-0.6 -1.3 -0.9 -3.5 -0.6 -4.9 0.3 -1.4 0 -2.9 -0.7 -3.3 -0.9 -0.5 -1 -0.1 -0.5 1.6 1.5 4.9 -0.5 1 -5.9 -11.3 -3.3 -7.7 -5.3 -13.4 -4.9 -14.4 0.4 -1.1 0.2 -1.5 -0.4 -1.1 -0.6 0.4 -1.3 0.1 -1.6 -0.6 -5.9 -13.7 -7.5 -18.1 -7 -19.4 0.4 -1 0.2 -1.4 -0.4 -1 -1.3 0.8 -5.6 -9.1 -4.6 -10.6 0.3 -0.5 0.1 -0.7 -0.4 -0.4 -1 0.6 -2.6 -3 -2.8 -6.1 0 -0.7 -0.6 -1.6 -1.3 -2.1 -0.7 -0.4 -1.4 -2.2 -1.7 -3.9 -0.3 -3.1 -0.2 -3.2 3.3 -3.2 2 0 5.5 0.7 7.7 1.5 2.2 0.8 6.4 1.4 9.4 1.5 4.3 0 6 0.5 7.9 2.3 l2.4 2.2 3.8 -4.3 c2.9 -3.2 4.9 -4.4 8.1 -5.1 2.4 -0.5 5.6 -1.3 7.2 -1.9 2.7 -1.1 3.6 -3.5 1.7 -4.7 -0.5 -0.3 -1 -2.8 -1 -5.5 0 -5.3 1.5 -7 6.3 -7 1.8 0 2.8 0.8 3.7 3 0.7 1.6 1.1 3.2 1 3.6 -0.1 0.4 0.4 1.1 1.2 1.5 1.1 0.7 1 1.1 -0.2 1.9 -1.3 0.8 -0.8 1.4 1.1 1.2 0.3 -0.1 2.7 4.5 5.2 10.1 6.2 13.9 6.3 14.2 4.6 13.2 -0.8 -0.4 -0.4 0.2 0.9 1.4 2.2 2.2 2.6 3.2 2.2 6.5 -0.1 1 0.3 1.5 0.9 1.2 1.2 -0.8 4.4 6.2 3.4 7.7 -0.3 0.5 -0.2 0.7 0.4 0.4 0.9 -0.6 5.8 9.4 5.8 11.8 0 0.6 0.5 1.3 1 1.7 0.6 0.5 0.5 0.8 -0.2 0.8 -0.7 0 -1.3 0.5 -1.3 1.1 0 0.6 0.6 0.9 1.4 0.6 1 -0.4 1.8 0.4 2.5 2.4 0.5 1.6 0.7 2.9 0.3 2.9 -0.4 0 0 0.4 0.8 1 0.8 0.5 1.2 1.1 1 1.3 -0.3 0.2 -3.1 2.5 -6.3 5 l-5.7 4.7 -4.1 -1.6 c-4.3 -1.8 -5.9 -1.3 -4.3 1.4 1.6 2.6 -0.1 8.1 -3.4 11.5 l-3 3 -3 -2.2 c-4.1 -2.9 -6.7 -2.7 -11.2 0.9 -4.4 3.5 -4.2 3.5 -8.7 1.3 -3.9 -1.8 -6 -1.2 -7.9 2.5 l-1.1 2.2 -1 -2.3z"/>
  <path d="M575.6 507.8 c-3.5 -8.3 -2.9 -12.4 4.4 -29.6 3.5 -8.3 6.9 -14.8 7.4 -14.5 0.5 0.3 0.6 0.1 0.3 -0.5 -0.8 -1.2 0.2 -4.4 1.2 -3.8 0.3 0.2 0.7 -0.6 0.8 -1.7 0 -1.2 1.7 -5.7 3.7 -9.9 l3.5 -7.8 18.1 0 c16.4 0 18 0.2 18.1 1.8 0.1 0.9 0.2 2.6 0.3 3.7 0 1.1 0.6 1.9 1.2 1.8 1.4 -0.3 3.9 5.1 3 6.5 -0.3 0.4 0.4 1.6 1.5 2.5 1.8 1.6 2.4 3.5 2 6.5 -0.1 0.7 0.4 1.1 1.1 1 0.8 -0.2 1.3 0.6 1.2 1.9 0 1.2 0.3 2 0.7 1.8 1 -0.7 4.9 9.4 4.3 11.3 -0.5 1.3 -0.4 1.4 0.4 0.4 0.7 -1.1 1 -1 1.6 0.3 0.3 0.9 0.6 1.7 0.6 1.8 0 0.1 -4.4 0.1 -9.8 -0.1 l-9.7 -0.3 -3.4 4.4 c-3.8 5.1 -6.6 6.7 -12.1 6.7 -3.2 0 -4.4 0.6 -7.2 3.9 -5 5.8 -7.9 6.6 -15.9 4.5 -1.1 -0.3 -2.1 0.6 -2.9 2.6 -1.4 3.3 -5.7 7.3 -7.1 6.4 -0.5 -0.2 -1.4 0.4 -2.1 1.6 -1.9 3 -2.7 2.5 -5.2 -3.2z"/>
  <path d="M770.7 355.9 c-1.5 -1.7 -2.4 -3.5 -2.1 -4.1 0.3 -0.5 -0.5 -1.9 -1.8 -3.1 -2.1 -2 -2.8 -6.4 -0.8 -5.2 0.5 0.3 1.2 0 1.6 -0.6 0.4 -0.8 0.3 -0.9 -0.4 -0.5 -1.6 1 -1.6 1.1 1.8 -8.4 1.7 -4.6 3 -8.5 3 -8.7 0 -0.1 1.8 -0.3 4.1 -0.3 2.9 0 3.8 0.3 3.3 1.3 -0.6 0.9 -0.5 0.9 0.7 0 1 -0.8 8.1 -1.2 23.9 -1.2 20.5 -0.1 22.2 0.1 19.6 1.4 -1.5 0.8 -4.6 1.5 -6.8 1.5 -6.4 0 -7.5 1.1 -8.3 8.5 -0.6 5.5 -1.1 6.8 -3.4 8.4 -1.5 1.1 -3.9 2.3 -5.4 2.6 -1.4 0.4 -2.9 1.6 -3.2 2.6 -0.4 1 -1.5 1.9 -2.5 1.9 -1 0 -2.5 0.7 -3.4 1.5 -0.8 0.8 -1.9 1.5 -2.4 1.5 -0.5 0 -2.9 0.9 -5.3 2 -6.2 2.8 -9 2.6 -12.2 -1.1z"/>
 </g>
 <g fill="#46ddaa">
  <path d="M215.7 679 c-1 -1.6 -1.9 -4.6 -2.1 -6.6 -0.2 -2 -1.1 -4.5 -1.9 -5.5 -1.5 -1.7 -1.4 -2.2 0.6 -6.9 1.3 -2.8 2.7 -4.7 3.1 -4.3 0.5 0.4 0.6 0.3 0.3 -0.3 -1 -1.8 9.5 -25.6 10.6 -24.1 0.6 0.8 0.7 0.6 0.3 -0.6 -0.7 -2.1 19.3 -48.9 20.5 -48.1 0.5 0.3 0.6 -0.1 0.4 -0.9 -0.7 -1.7 4 -11.9 5 -10.9 0.5 0.4 0.5 0.2 0.2 -0.5 -0.4 -0.6 -0.4 -1.9 -0.1 -2.8 0.6 -1.3 0.9 -1.4 1.6 -0.3 0.7 0.9 0.8 0.7 0.4 -0.8 -0.7 -2.2 5.8 -17.4 6.6 -15.8 0.3 0.5 0.3 0.3 0.1 -0.4 -0.5 -2.1 8.9 -23.2 10 -22.5 0.6 0.3 0.7 0.1 0.3 -0.5 -0.4 -0.6 2.3 -8 6 -16.4 3.6 -8.4 7.5 -17.4 8.6 -20 1.2 -2.7 2.5 -4.5 3.1 -4.1 0.6 0.3 0.7 0.1 0.3 -0.5 -0.3 -0.6 2.5 -8.4 6.5 -17.4 3.9 -9 7.5 -17.5 8.1 -19 0.5 -1.6 1.4 -2.5 1.9 -2.2 0.5 0.3 0.6 -0.3 0.2 -1.2 -0.4 -1.1 -0.2 -1.5 0.4 -1.1 0.6 0.4 1 -0.4 1 -1.9 0.1 -1.5 0.6 -3 1.3 -3.4 0.8 -0.5 1.4 -1.9 1.5 -3.2 0.4 -3.9 15.7 -37.8 16.8 -37.1 0.6 0.3 0.7 0.1 0.3 -0.5 -0.9 -1.6 3.4 -11.3 4.7 -10.5 0.6 0.3 0.7 0.1 0.3 -0.6 -0.9 -1.4 0.2 -5.3 1.4 -4.6 0.4 0.3 0.6 -0.5 0.2 -1.7 -0.3 -1.4 -0.1 -1.9 0.6 -1.4 0.8 0.4 1 0.2 0.6 -0.7 -0.3 -0.8 0.1 -2.1 0.8 -2.8 0.7 -0.8 1.4 -2.1 1.6 -2.9 0.2 -0.8 0.8 -1.7 1.3 -1.8 0.5 -0.2 0.7 -0.8 0.4 -1.3 -0.3 -0.5 0.1 -2.1 1 -3.6 l1.6 -2.8 -0.5 3 -0.5 3 1.3 -3 c1.1 -2.2 1.1 -3.2 0.3 -3.7 -0.9 -0.6 -0.8 -0.8 0.1 -0.8 0.7 0 1.1 -0.4 0.7 -1 -0.3 -0.5 -0.1 -1.7 0.4 -2.7 0.5 -1 2.1 -4.7 3.7 -8.3 1.5 -3.6 3.1 -6.8 3.6 -7.1 0.5 -0.3 0.9 -1 0.9 -1.5 -0.2 -2.3 2.2 -7.4 3.1 -6.8 0.6 0.4 0.8 0.2 0.5 -0.4 -0.4 -0.5 0.2 -3.1 1.3 -5.6 l1.9 -4.6 6.3 0 c4.4 0 5.9 0.3 4.8 1 -1.3 0.8 -1.2 1 0.3 1 0.9 0 1.7 -0.4 1.7 -1 0 -0.6 6.8 -1 18.8 -0.9 10.8 0.1 17.4 0.5 15.7 0.9 l-3 0.8 3.3 0.1 c1.7 0 3.2 -0.3 3.2 -0.9 0 -0.5 1.7 -1 3.8 -1 2.7 0 3.3 0.3 2.2 1 -1.2 0.8 -1 1 0.8 1 1.3 0 2 -0.4 1.7 -1 -0.4 -0.6 1.4 -0.9 4.7 -0.9 2.9 0.1 4.3 0.4 3.1 0.6 -1.3 0.2 -2.3 0.8 -2.3 1.3 0 0.5 1.1 0.7 2.4 0.4 2.5 -0.4 4.2 1.8 2.9 3.8 -0.3 0.6 -0.2 0.8 0.3 0.5 1.3 -0.7 12.4 24.5 11.4 25.7 -0.5 0.5 -0.6 1.5 -0.3 2.3 0.4 1 0.8 1.1 1.3 0.3 1 -1.6 6.4 10.9 6.2 14.2 -0.2 2 0.2 2.6 1.2 2.2 1.4 -0.6 3 2.2 2 3.7 -0.3 0.5 -0.1 0.9 0.4 0.9 1.4 0 7.4 14.4 6.7 16.2 -0.4 0.9 -0.2 1.9 0.4 2.3 0.7 0.4 0.9 -0.1 0.5 -1.2 -0.3 -1 0.1 -0.7 0.9 0.7 0.8 1.4 1.7 3.4 1.8 4.5 0.2 1.1 0.7 2.2 1.1 2.5 1.2 0.9 4 8.2 2.9 7.5 -1.5 -0.9 -1.3 0.5 0.5 3.5 l1.5 2.5 -0.6 -2.5 -0.6 -2.5 1.5 2.5 c1.9 3.1 2 4.3 0.4 3.5 -0.7 -0.4 -0.6 -0.1 0.3 0.7 2.4 1.9 5.1 7.8 4.5 9.4 -0.4 1 -0.2 1.2 0.6 0.8 0.8 -0.5 0.9 -0.2 0.5 1 -0.4 0.9 -0.3 1.5 0.2 1.2 1 -0.7 3.3 4.2 2.6 5.5 -0.4 0.5 -0.2 0.9 0.3 0.9 1.4 0 3.2 4.8 2.5 6.7 -0.4 1.1 -0.3 1.4 0.6 0.9 1.1 -0.7 2.7 2.2 2.1 4 -0.1 0.4 0.2 1 0.8 1.3 0.5 0.3 2.5 4.2 4.5 8.6 2.9 6.3 3.3 8.2 2.4 9.4 -1 1.2 -0.9 1.4 0.6 0.8 2 -0.8 2.3 1.2 0.5 3.3 -1.1 1.2 -1 1.2 0.4 0.1 1.6 -1.2 1.9 -1 2.7 1 0.7 2.1 0.5 2.5 -2.1 3.2 -3.7 1 -4.5 3.2 -2.6 6.6 1 1.5 1.4 3.9 1.1 5.9 -0.4 2.6 -1.3 3.5 -4.8 5.1 -2.3 1 -5.4 1.8 -6.9 1.8 -1.9 0 -3.7 1.2 -6.1 3.9 -1.9 2.2 -3.4 4.2 -3.5 4.7 -0.1 1.7 -6.1 0.5 -8.8 -1.8 -1.7 -1.4 -3.4 -2.5 -3.9 -2.5 -1.2 0 -3.3 7.4 -3.3 12 0 4.6 -1.9 5.4 -4.2 1.8 -2.4 -3.8 -3 -7.4 -1.3 -8.8 1.9 -1.6 1.9 -5 0 -5 -2.3 0 -2.9 -0.1 -4.8 -1.2 -3.3 -1.7 -5.5 -1.7 -6.2 0 -0.6 1.6 -0.7 1.6 -1.6 -0.1 -0.6 -0.9 -0.7 -2.2 -0.3 -2.9 0.4 -0.6 0.3 -0.8 -0.3 -0.5 -0.6 0.4 -1.9 -1.4 -2.9 -4.1 -2.6 -6.3 -2.7 -6.9 -1.5 -5.2 0.9 1.2 1.1 1.1 1.1 -0.7 0 -1.7 -0.4 -2.1 -1.7 -1.6 -1.3 0.5 -1.5 0.3 -0.9 -1.2 0.4 -1.1 0.4 -1.6 0 -1.2 -1.2 1.2 -6.5 -11.3 -5.8 -13.7 0.4 -1.5 0.3 -1.7 -0.4 -0.8 -0.7 1 -1.7 -0.5 -3.6 -5.3 -1.4 -3.6 -2.3 -7.1 -2 -7.7 0.4 -0.6 0.3 -0.8 -0.2 -0.5 -0.6 0.3 -3.3 -4.9 -6.2 -11.6 -6.9 -16.5 -6.8 -16.2 -5.2 -15.2 0.9 0.5 1.1 0.4 0.6 -0.4 -0.4 -0.6 -1.1 -0.9 -1.5 -0.7 -1.1 0.7 -6.2 -12.4 -5.4 -13.7 0.3 -0.6 0.1 -0.7 -0.4 -0.4 -0.6 0.4 -2 -1.6 -3.3 -4.8 -2.5 -6.1 -3.5 -6.8 -4.4 -3 -1.3 5 -10.8 26.5 -11.6 26 -0.4 -0.3 -0.6 0.3 -0.3 1.3 0.2 1.1 -0.2 2.6 -1.1 3.4 -0.8 0.9 -1.3 1.8 -1.1 2 0.4 0.4 -1.4 5 -9 22.3 -0.7 1.7 -2.5 6 -4 9.8 -1.6 3.7 -3.1 6.7 -3.4 6.7 -0.4 0 -0.7 0.8 -0.8 1.8 -0.2 2 -6.1 15.4 -7.2 16.2 -0.3 0.3 -0.6 1 -0.6 1.5 0 0.6 -0.6 2.7 -1.4 4.9 -1 2.9 -1.6 3.5 -2.3 2.5 -0.8 -1.1 -0.8 -1 -0.4 0.4 0.7 2 -0.9 5.5 -3.3 7.5 -1 0.9 -1.1 1.1 -0.2 0.6 1 -0.5 1.3 -0.3 0.9 0.7 -4 10 -6.3 14.7 -6.9 14.3 -0.5 -0.3 -0.6 0.2 -0.3 1 0.3 0.8 -0.2 2.8 -1.1 4.5 -1.4 2.8 -1.4 3.2 0 3.7 0.8 0.4 3 0.4 4.8 0.1 1.7 -0.2 4 0 5.1 0.5 1 0.6 1.6 0.6 1.3 0.1 -0.3 -0.4 5.3 -0.8 12.4 -0.8 9.9 -0.1 12.8 0.2 12.5 1.2 -0.3 0.7 0.1 1 1 0.6 0.7 -0.3 1.4 -0.9 1.4 -1.4 0 -0.5 1.4 -0.9 3.1 -0.9 2.4 0 3 0.4 2.5 1.5 -0.3 0.9 0 1.5 1 1.5 0.8 0 1.3 -0.4 1 -0.9 -1 -1.5 1.5 -1.8 12.9 -1.6 14.6 0.3 14.6 0.3 14.3 1.8 -0.1 0.6 0.3 2.1 0.9 3.2 2 3.8 3.5 12.2 2.5 14.2 -2.2 4 -6.7 7.2 -10.5 7.5 -4.3 0.2 -5.7 1.9 -5.7 6.6 0 3.4 -1.7 5 -8.3 8.1 l-4.7 2.3 -3.5 -2.6 c-1.9 -1.5 -4.7 -2.6 -6.4 -2.6 -1.6 0 -4.2 -0.5 -5.6 -1.2 -2.1 -0.9 -3.3 -0.7 -8 1.5 -3.1 1.6 -8.1 3 -11.7 3.4 -5.4 0.5 -6.7 1.1 -9.1 3.7 -2.3 2.6 -2.7 3.7 -2.2 6.4 0.4 2.3 0.3 3.2 -0.4 2.7 -0.6 -0.3 -1.1 -0.2 -1.1 0.4 0 0.7 -0.8 0.7 -2.6 0.1 -1.6 -0.7 -2.3 -0.7 -1.9 0 0.4 0.6 -0.5 1 -1.9 1 -1.4 0 -2.6 -0.3 -2.6 -0.8 0 -1.2 -11.7 -1.4 -12.5 -0.2 -0.3 0.5 -1 0.8 -1.5 0.5 -1.3 -0.8 -2.5 1.4 -9.5 18 -3.8 8.8 -7.2 16.3 -7.7 16.6 -0.6 0.3 -0.9 0.9 -0.9 1.3 0.4 2.5 0 3.6 -1.1 3 -0.7 -0.4 -0.8 -0.3 -0.4 0.4 0.9 1.5 -9.5 26.2 -10.8 25.5 -0.5 -0.3 -0.6 -0.1 -0.2 0.5 0.3 0.6 -0.6 4 -2 7.6 -2.2 5.2 -3 6.3 -4.3 5.6 -0.9 -0.5 -2.8 -1.1 -4.3 -1.5 -2.2 -0.4 -2.8 -1.1 -2.8 -3.1 0 -1.3 -0.7 -2.7 -1.6 -3.1 -1.1 -0.4 -1.4 -1.3 -1 -2.9 0.9 -3.3 -0.3 -3 -5 1 -2.2 1.9 -5.3 3.6 -6.8 3.8 -1.6 0.1 -3.5 1.2 -4.3 2.4 -1.2 1.8 -1.1 2.4 0.6 4.6 1.1 1.3 2.1 3.8 2.3 5.4 l0.3 2.9 -12.7 0.3 c-8.3 0.2 -12.8 -0.1 -12.8 -0.8 0 -0.5 -0.8 -1 -1.7 -1 -1.5 0 -1.6 0.2 -0.3 1 1.1 0.7 -0.1 1 -4 1 -5.1 0 -5.7 -0.2 -7.3 -3z"/>
 </g>
</svg>