<?xml version="1.0" standalone="no"?>
<!DOCTYPE svg PUBLIC "-//W3C//DTD SVG 20010904//EN"
 "http://www.w3.org/TR/2001/REC-SVG-20010904/DTD/svg10.dtd">
<svg version="1.0" xmlns="http://www.w3.org/2000/svg"
 width="1080.000000pt" height="643.000000pt" viewBox="0 0 1080.000000 643.000000"
 preserveAspectRatio="xMidYMid meet">

<g transform="translate(0.000000,643.000000) scale(0.100000,-0.100000)"
fill="#EBE117" stroke="none">
<path d="M5170 6115 c-653 -97 -1178 -588 -1320 -1232 -77 -348 -30 -724 129
-1041 67 -133 188 -310 256 -372 l27 -25 -1524 -5 -1523 -5 -67 -26 c-37 -14
-89 -41 -117 -58 -110 -71 -207 -214 -231 -340 -6 -34 -10 -421 -10 -1060 0
-1114 -3 -1061 66 -1190 65 -124 163 -208 304 -259 41 -16 314 -17 3482 -19
l3438 -3 5 22 c5 25 101 520 285 1463 66 341 122 626 125 633 3 8 32 12 99 12
l94 0 12 -52 c21 -95 19 -93 50 -50 40 56 94 97 152 116 67 21 116 20 183 -5
97 -36 144 -132 132 -268 -7 -89 -173 -938 -196 -1004 -57 -165 -143 -250
-283 -279 -102 -21 -182 9 -228 85 l-18 29 -11 -53 c-29 -142 -121 -624 -121
-636 0 -12 101 -13 618 -10 538 2 623 5 663 19 135 47 238 135 303 259 69 129
66 76 66 1190 0 639 -4 1026 -10 1060 -18 94 -73 194 -147 269 -69 68 -112 95
-213 134 -55 21 -57 21 -1327 24 -1210 2 -1272 2 -1277 -15 -2 -10 -9 -43 -15
-73 -50 -265 -153 -798 -157 -812 -3 -10 11 -2 33 19 56 52 127 83 193 83 113
0 184 -42 217 -128 31 -82 23 -182 -41 -507 -31 -159 -85 -431 -118 -602 l-62
-313 -138 0 c-105 0 -136 3 -133 13 2 6 27 131 55 277 28 146 69 357 91 470
22 113 49 249 60 304 25 128 25 166 -2 195 -19 20 -29 23 -80 19 -64 -5 -98
-27 -118 -76 -6 -15 -60 -283 -121 -597 -61 -314 -113 -578 -116 -587 -5 -16
-20 -18 -140 -18 l-135 0 7 37 c9 51 47 249 143 738 207 1057 301 1545 301
1559 0 14 -17 16 -112 16 l-112 0 40 43 c23 23 61 69 86 102 321 430 409 962
241 1464 -170 510 -597 905 -1118 1034 -55 14 -138 30 -184 36 -109 14 -323
12 -431 -4z m530 -193 c278 -65 489 -181 691 -382 207 -206 328 -429 390 -720
32 -151 32 -401 0 -550 -31 -147 -53 -207 -126 -355 -194 -392 -541 -656 -986
-752 -103 -22 -406 -25 -511 -5 -459 87 -832 371 -1027 783 -58 123 -84 198
-113 334 -31 144 -31 396 1 545 62 292 182 513 390 720 224 223 477 351 786
399 101 16 407 5 505 -17z m553 -2946 c85 -20 134 -57 165 -124 24 -50 27 -68
25 -147 -1 -51 -14 -148 -30 -225 l-28 -135 -124 -3 c-68 -2 -129 -1 -136 2
-9 3 -5 39 16 147 30 152 29 191 -5 214 -27 19 -99 19 -136 0 -39 -20 -60 -62
-81 -165 -40 -189 -27 -224 151 -400 137 -136 171 -188 191 -293 12 -66 4
-130 -41 -349 -33 -162 -70 -245 -139 -315 -79 -80 -193 -123 -331 -123 -215
0 -330 97 -330 280 0 25 14 118 31 208 l31 162 134 0 c122 0 134 -2 134 -18 0
-10 -11 -76 -25 -147 -14 -72 -22 -142 -19 -158 16 -76 162 -74 207 2 20 34
67 255 67 314 0 70 -35 124 -167 255 -136 136 -173 194 -193 302 -6 35 -8 86
-5 114 12 90 55 290 72 336 53 142 166 242 306 269 66 14 197 12 260 -3z
m-3606 -38 c-3 -13 -16 -74 -28 -135 l-22 -113 -216 0 -216 0 -39 -203 c-21
-111 -44 -230 -51 -264 l-12 -63 184 0 c100 0 183 -3 183 -8 0 -9 -37 -208
-45 -239 -5 -23 -7 -23 -189 -23 l-184 0 -10 -47 c-6 -27 -41 -207 -78 -400
l-69 -353 -138 0 -137 0 5 23 c6 26 307 1570 338 1735 l21 112 354 0 354 0 -5
-22z m630 -310 c-2 -7 -15 -68 -27 -135 l-23 -123 -106 0 c-116 0 -159 -13
-193 -60 -13 -17 -53 -203 -134 -620 -63 -327 -117 -596 -118 -598 -2 -1 -64
-1 -137 0 l-135 3 137 700 c75 386 142 727 149 758 l12 58 96 -3 97 -3 15 -70
16 -70 16 30 c33 62 108 116 185 134 61 14 156 13 150 -1z m607 -15 c102 -38
156 -126 156 -252 0 -37 -24 -184 -53 -336 l-53 -270 -252 -3 c-251 -2 -252
-2 -257 -25 -44 -188 -64 -338 -47 -363 23 -34 102 -45 151 -20 41 22 60 57
80 149 l18 82 137 3 137 3 -6 -23 c-3 -13 -12 -59 -20 -103 -32 -167 -120
-296 -240 -351 -110 -50 -302 -57 -401 -15 -105 46 -148 119 -146 251 1 75 77
495 167 920 34 161 123 286 237 334 35 15 83 31 108 36 68 14 227 5 284 -17z
m953 -2 c118 -51 171 -170 144 -326 -9 -56 -68 -363 -92 -482 l-10 -53 -253 0
-252 0 -33 -168 c-35 -180 -34 -213 5 -239 38 -25 117 -13 155 23 30 29 40 56
59 157 l11 57 136 0 136 0 -7 -48 c-18 -139 -78 -281 -147 -351 -76 -77 -198
-121 -334 -121 -207 0 -312 82 -322 253 -5 73 -1 94 141 817 37 191 66 275
120 348 54 74 136 125 236 149 83 19 243 11 307 -16z m3275 4 c98 -34 158
-129 158 -249 0 -60 -154 -875 -186 -985 -43 -150 -133 -250 -263 -293 -132
-45 -326 -31 -412 30 -77 55 -115 180 -90 302 5 30 46 240 90 465 44 226 87
428 94 451 57 161 163 260 312 291 77 16 235 9 297 -12z"/>
<path d="M4720 4591 l0 -911 538 0 c599 0 609 1 736 67 288 150 381 545 195
834 -34 54 -147 164 -178 174 -25 8 -26 18 -5 50 24 37 44 124 44 195 0 220
-143 399 -380 476 -49 16 -107 18 -502 22 l-448 3 0 -910z m837 500 c74 -34
99 -131 54 -205 l-23 -36 -224 0 -224 0 0 123 c0 68 3 127 7 130 3 4 88 7 187
7 156 0 187 -3 223 -19z m213 -633 c65 -33 95 -91 95 -183 0 -83 -28 -142 -84
-178 -35 -21 -45 -22 -338 -25 l-303 -3 0 205 0 206 293 0 c284 0 294 -1 337
-22z"/>
<path d="M3615 2363 c-27 -7 -54 -32 -72 -67 -13 -24 -63 -258 -63 -293 0 -10
27 -13 113 -13 l113 0 27 138 c32 163 33 183 9 212 -18 23 -84 35 -127 23z"/>
<path d="M4555 2360 c-27 -11 -61 -49 -73 -80 -6 -14 -20 -75 -31 -135 -12
-61 -24 -120 -27 -132 -4 -23 -3 -23 110 -23 101 0 115 2 120 18 3 9 16 76 30
149 30 152 25 184 -26 202 -36 13 -75 13 -103 1z"/>
<path d="M7840 2363 c-30 -11 -71 -58 -80 -93 -8 -31 -151 -762 -163 -834 -11
-64 27 -106 94 -106 41 0 94 26 114 56 13 20 99 431 170 816 21 110 15 141
-31 158 -27 11 -79 12 -104 3z"/>
<path d="M8770 2352 c-21 -10 -42 -31 -52 -52 -9 -19 -37 -143 -63 -275 -26
-132 -63 -324 -82 -426 -22 -111 -33 -196 -29 -212 20 -80 172 -69 213 15 7
14 40 164 73 334 33 170 69 354 80 408 28 139 27 179 -6 205 -33 26 -87 27
-134 3z"/>
</g>
</svg>
