<?xml version="1.0" standalone="no"?>
<!DOCTYPE svg PUBLIC "-//W3C//DTD SVG 20010904//EN"
 "http://www.w3.org/TR/2001/REC-SVG-20010904/DTD/svg10.dtd">
<svg version="1.0" xmlns="http://www.w3.org/2000/svg"
 width="1080.000000pt" height="1080.000000pt" viewBox="0 0 1080.000000 1080.000000"
 preserveAspectRatio="xMidYMid meet">

<g transform="translate(0.000000,1080.000000) scale(0.100000,-0.100000)"
fill="#000000" stroke="none">
<path d="M5170 9195 c-665 -99 -1194 -602 -1325 -1259 -69 -351 -23 -702 135
-1016 56 -111 155 -260 225 -338 l56 -62 -1523 -2 -1523 -3 -67 -26 c-37 -14
-89 -41 -117 -58 -110 -71 -207 -214 -231 -340 -15 -78 -14 -2043 1 -2113 37
-172 171 -324 347 -391 l57 -22 3437 -3 3438 -2 5 22 c3 13 25 127 49 253 37
191 310 1592 349 1790 l12 60 96 3 97 3 12 -53 c21 -96 19 -93 50 -50 40 56
94 97 152 116 67 21 116 20 183 -5 69 -26 109 -75 126 -157 16 -77 8 -143 -50
-437 -27 -137 -66 -334 -86 -437 -19 -102 -44 -211 -54 -240 -57 -166 -142
-250 -283 -280 -102 -21 -182 9 -228 85 l-18 29 -11 -53 c-29 -139 -121 -624
-121 -636 0 -11 108 -13 593 -13 546 0 599 1 664 19 185 48 342 213 382 399
15 70 16 2035 1 2113 -38 202 -219 380 -424 418 -41 8 -446 11 -1298 11
l-1238 0 -5 -22 c-2 -13 -20 -104 -39 -203 -99 -509 -125 -643 -132 -670 l-7
-29 39 38 c55 54 126 86 194 86 113 0 184 -42 217 -128 32 -83 24 -181 -45
-527 -34 -170 -87 -442 -118 -602 l-57 -293 -138 0 c-106 0 -137 3 -134 13 2
6 27 131 55 277 28 146 69 357 91 470 22 113 49 249 60 304 25 128 25 166 -2
195 -19 20 -29 23 -80 19 -64 -5 -98 -27 -118 -76 -9 -23 -83 -396 -205 -1027
l-33 -170 -136 -3 c-75 -1 -137 1 -137 6 0 5 18 98 39 208 39 195 121 615 262
1339 38 198 88 450 109 561 22 110 40 208 40 217 0 15 -13 17 -111 17 l-111 0
57 62 c70 78 169 227 225 338 269 535 207 1191 -157 1665 -215 280 -531 491
-861 575 -196 49 -444 63 -632 35z m530 -193 c458 -107 828 -417 1004 -844 81
-196 119 -450 98 -660 -63 -631 -504 -1119 -1133 -1255 -118 -25 -419 -25
-538 0 -431 92 -784 355 -974 727 -96 187 -136 320 -158 519 -54 500 189 1017
610 1300 181 122 372 197 586 230 101 16 407 5 505 -17z m553 -2946 c77 -18
133 -58 165 -120 24 -46 26 -61 25 -146 -1 -59 -13 -147 -30 -230 l-28 -135
-124 -3 c-69 -1 -130 -1 -136 2 -9 3 -4 44 16 147 30 152 29 191 -5 214 -26
19 -99 19 -135 1 -42 -22 -60 -57 -81 -162 -41 -197 -30 -227 148 -402 140
-138 173 -189 193 -297 12 -67 6 -117 -41 -347 -17 -82 -40 -161 -59 -200 -78
-164 -233 -247 -441 -235 -126 7 -165 21 -226 82 -43 43 -52 59 -64 113 -15
73 -11 119 25 310 l28 142 133 0 c120 0 134 -2 134 -17 0 -9 -12 -78 -26 -153
-29 -151 -25 -182 23 -201 71 -27 159 14 183 85 16 52 50 239 50 280 0 69 -36
123 -167 254 -134 134 -171 191 -193 296 -7 35 -9 81 -5 115 11 89 54 292 72
341 53 142 166 242 306 269 66 14 197 12 260 -3z m-3606 -38 c-3 -13 -16 -74
-28 -135 l-22 -113 -216 0 -216 0 -39 -203 c-21 -111 -44 -230 -51 -264 l-12
-63 184 0 c100 0 183 -3 183 -8 0 -9 -37 -208 -45 -239 -5 -23 -7 -23 -190
-23 -102 0 -185 -2 -185 -4 0 -1 -26 -138 -59 -302 -32 -164 -67 -343 -77
-396 l-18 -98 -139 0 c-127 0 -138 1 -133 18 3 9 44 217 91 462 47 245 117
605 155 800 38 195 80 408 92 473 l22 117 354 0 354 0 -5 -22z m630 -310 c-2
-7 -15 -68 -27 -135 l-23 -123 -104 0 c-114 0 -157 -12 -190 -53 -22 -29 -25
-42 -123 -547 -39 -201 -85 -436 -102 -522 l-31 -158 -137 0 -137 0 18 93 c59
302 270 1386 274 1405 5 22 9 23 103 20 l97 -3 15 -70 16 -70 16 30 c33 62
108 116 185 134 61 14 156 13 150 -1z m607 -15 c102 -38 156 -126 156 -252 0
-37 -24 -184 -53 -336 l-53 -270 -251 -3 c-229 -2 -252 -4 -257 -20 -3 -9 -17
-75 -31 -146 -25 -130 -31 -202 -17 -222 23 -34 102 -45 151 -20 41 22 60 57
80 149 l18 82 137 3 137 3 -6 -23 c-3 -13 -12 -59 -20 -103 -22 -111 -82 -232
-143 -286 -90 -80 -214 -116 -366 -107 -100 7 -173 36 -220 88 -80 89 -79 161
8 605 37 187 74 376 82 420 35 179 68 258 142 338 51 54 135 99 218 116 72 15
230 6 288 -16z m953 -2 c118 -52 171 -170 145 -326 -10 -57 -70 -368 -93 -482
l-10 -53 -253 0 -252 0 -33 -165 c-35 -180 -34 -216 5 -242 38 -25 117 -13
155 23 30 29 40 56 59 157 l11 57 136 0 136 0 -7 -48 c-18 -138 -78 -280 -146
-351 -75 -76 -199 -121 -335 -121 -208 0 -312 82 -322 254 -4 58 7 132 62 411
36 187 75 386 86 443 29 149 54 222 99 290 59 88 141 143 250 169 83 19 243
11 307 -16z m3275 4 c98 -34 158 -129 158 -250 0 -60 -153 -873 -186 -985 -31
-108 -79 -180 -156 -237 -68 -50 -145 -73 -258 -80 -221 -13 -341 69 -355 243
-5 58 2 112 49 349 30 154 71 363 90 464 49 247 88 340 176 418 43 38 123 77
185 90 77 16 235 9 297 -12z"/>
<path d="M4720 7671 l0 -911 535 0 c346 0 553 4 587 11 29 6 91 29 138 51 136
65 227 171 281 328 30 89 31 264 0 360 -38 120 -127 241 -226 307 -22 15 -42
29 -44 30 -3 2 3 17 13 34 27 47 46 126 46 199 0 219 -144 399 -380 476 -49
16 -107 18 -502 22 l-448 3 0 -910z m837 500 c74 -34 99 -131 54 -205 l-23
-36 -224 0 -224 0 0 123 c0 68 3 127 7 130 3 4 88 7 187 7 156 0 187 -3 223
-19z m214 -634 c64 -34 94 -91 94 -182 0 -83 -28 -142 -84 -178 -35 -21 -45
-22 -338 -25 l-303 -3 0 205 0 206 293 0 c288 0 295 0 338 -23z"/>
<path d="M3615 5443 c-27 -7 -54 -32 -72 -67 -13 -24 -63 -258 -63 -293 0 -10
27 -13 113 -13 l113 0 27 138 c32 161 33 183 9 212 -18 23 -84 35 -127 23z"/>
<path d="M4555 5440 c-27 -11 -61 -49 -73 -80 -6 -14 -20 -75 -31 -135 -12
-61 -24 -120 -27 -132 -4 -23 -3 -23 110 -23 101 0 115 2 120 18 5 17 41 203
49 256 7 41 -10 81 -39 95 -29 13 -80 14 -109 1z"/>
<path d="M7834 5440 c-11 -4 -32 -22 -46 -38 -22 -27 -35 -79 -101 -419 -98
-500 -97 -491 -85 -523 23 -68 150 -65 201 5 11 15 41 147 86 372 107 545 106
539 93 568 -18 40 -92 58 -148 35z"/>
<path d="M8772 5433 c-62 -30 -53 1 -172 -608 -61 -315 -65 -341 -54 -370 9
-22 57 -45 97 -45 40 0 97 35 114 72 7 14 40 164 73 334 33 170 69 354 80 408
28 139 27 179 -6 205 -32 25 -86 27 -132 4z"/>
<path d="M0 1330 l0 -1330 5400 0 5400 0 0 1330 0 1330 -5400 0 -5400 0 0
-1330z"/>
</g>
</svg>
